<mxfile host="app.diagrams.net" modified="2023-04-21T08:03:08.721Z" agent="Mozilla/5.0 (Windows NT 10.0; Win64; x64) AppleWebKit/537.36 (KHTML, like Gecko) Chrome/112.0.0.0 Safari/537.36" etag="eNCvZiJfF4wneecTLR6D" version="21.2.1" type="github">
  <diagram name="페이지-1" id="zTV3JI7mFNbNnCu1XS13">
    <mxGraphModel dx="1434" dy="796" grid="1" gridSize="10" guides="1" tooltips="1" connect="1" arrows="1" fold="1" page="1" pageScale="1" pageWidth="1169" pageHeight="827" math="0" shadow="0">
      <root>
        <mxCell id="0" />
        <mxCell id="1" parent="0" />
        <mxCell id="SqzYUuBk0vN12Bb9rYLq-1" value="" style="rounded=0;whiteSpace=wrap;html=1;" vertex="1" parent="1">
          <mxGeometry x="120" y="40" width="1040" height="290" as="geometry" />
        </mxCell>
        <mxCell id="SqzYUuBk0vN12Bb9rYLq-2" value="Actor" style="shape=umlActor;verticalLabelPosition=bottom;verticalAlign=top;html=1;outlineConnect=0;" vertex="1" parent="1">
          <mxGeometry x="50" y="80" width="30" height="60" as="geometry" />
        </mxCell>
        <mxCell id="SqzYUuBk0vN12Bb9rYLq-3" value="학교/학년/과목&lt;br&gt;조회" style="ellipse;whiteSpace=wrap;html=1;" vertex="1" parent="1">
          <mxGeometry x="140" y="70" width="120" height="80" as="geometry" />
        </mxCell>
        <mxCell id="SqzYUuBk0vN12Bb9rYLq-4" value="단원 트리&lt;br&gt;조회" style="ellipse;whiteSpace=wrap;html=1;" vertex="1" parent="1">
          <mxGeometry x="340" y="70" width="120" height="80" as="geometry" />
        </mxCell>
        <mxCell id="SqzYUuBk0vN12Bb9rYLq-5" value="단원별 문항 개수 &lt;br&gt;조회" style="ellipse;whiteSpace=wrap;html=1;" vertex="1" parent="1">
          <mxGeometry x="540" y="70" width="120" height="80" as="geometry" />
        </mxCell>
        <mxCell id="SqzYUuBk0vN12Bb9rYLq-6" value="문항 목록&lt;br&gt;조회" style="ellipse;whiteSpace=wrap;html=1;" vertex="1" parent="1">
          <mxGeometry x="740" y="70" width="120" height="80" as="geometry" />
        </mxCell>
        <mxCell id="SqzYUuBk0vN12Bb9rYLq-7" value="선택한 문항 목록&lt;br&gt;조회" style="ellipse;whiteSpace=wrap;html=1;" vertex="1" parent="1">
          <mxGeometry x="940" y="70" width="120" height="80" as="geometry" />
        </mxCell>
        <mxCell id="SqzYUuBk0vN12Bb9rYLq-8" value="시험지 생성" style="ellipse;whiteSpace=wrap;html=1;" vertex="1" parent="1">
          <mxGeometry x="1020" y="230" width="120" height="80" as="geometry" />
        </mxCell>
        <mxCell id="SqzYUuBk0vN12Bb9rYLq-9" value="셋팅지 문항&lt;br&gt;조회" style="ellipse;whiteSpace=wrap;html=1;" vertex="1" parent="1">
          <mxGeometry x="860" y="230" width="120" height="80" as="geometry" />
        </mxCell>
        <mxCell id="SqzYUuBk0vN12Bb9rYLq-10" value="&amp;lt;&amp;lt;include&amp;gt;&amp;gt;" style="html=1;verticalAlign=bottom;labelBackgroundColor=none;endArrow=open;endFill=0;dashed=1;rounded=0;exitX=1;exitY=0.5;exitDx=0;exitDy=0;entryX=0;entryY=0.5;entryDx=0;entryDy=0;" edge="1" parent="1" source="SqzYUuBk0vN12Bb9rYLq-3" target="SqzYUuBk0vN12Bb9rYLq-4">
          <mxGeometry width="160" relative="1" as="geometry">
            <mxPoint x="450" y="30" as="sourcePoint" />
            <mxPoint x="610" y="30" as="targetPoint" />
          </mxGeometry>
        </mxCell>
        <mxCell id="SqzYUuBk0vN12Bb9rYLq-11" value="&amp;lt;&amp;lt;include&amp;gt;&amp;gt;" style="html=1;verticalAlign=bottom;labelBackgroundColor=none;endArrow=open;endFill=0;dashed=1;rounded=0;exitX=1;exitY=0.5;exitDx=0;exitDy=0;entryX=0;entryY=0.5;entryDx=0;entryDy=0;" edge="1" parent="1" source="SqzYUuBk0vN12Bb9rYLq-4" target="SqzYUuBk0vN12Bb9rYLq-5">
          <mxGeometry width="160" relative="1" as="geometry">
            <mxPoint x="450" y="30" as="sourcePoint" />
            <mxPoint x="610" y="30" as="targetPoint" />
          </mxGeometry>
        </mxCell>
        <mxCell id="SqzYUuBk0vN12Bb9rYLq-12" value="&amp;lt;&amp;lt;include&amp;gt;&amp;gt;" style="html=1;verticalAlign=bottom;labelBackgroundColor=none;endArrow=open;endFill=0;dashed=1;rounded=0;exitX=1;exitY=0.5;exitDx=0;exitDy=0;entryX=0;entryY=0.5;entryDx=0;entryDy=0;" edge="1" parent="1" source="SqzYUuBk0vN12Bb9rYLq-5" target="SqzYUuBk0vN12Bb9rYLq-6">
          <mxGeometry width="160" relative="1" as="geometry">
            <mxPoint x="450" y="30" as="sourcePoint" />
            <mxPoint x="610" y="30" as="targetPoint" />
          </mxGeometry>
        </mxCell>
        <mxCell id="SqzYUuBk0vN12Bb9rYLq-13" value="&amp;lt;&amp;lt;include&amp;gt;&amp;gt;" style="html=1;verticalAlign=bottom;labelBackgroundColor=none;endArrow=open;endFill=0;dashed=1;rounded=0;exitX=1;exitY=0.5;exitDx=0;exitDy=0;entryX=0;entryY=0.5;entryDx=0;entryDy=0;" edge="1" parent="1" source="SqzYUuBk0vN12Bb9rYLq-6" target="SqzYUuBk0vN12Bb9rYLq-7">
          <mxGeometry width="160" relative="1" as="geometry">
            <mxPoint x="450" y="30" as="sourcePoint" />
            <mxPoint x="610" y="30" as="targetPoint" />
          </mxGeometry>
        </mxCell>
        <mxCell id="SqzYUuBk0vN12Bb9rYLq-14" value="" style="endArrow=none;html=1;rounded=0;entryX=0.5;entryY=1;entryDx=0;entryDy=0;exitX=0.5;exitY=0;exitDx=0;exitDy=0;" edge="1" parent="1" source="SqzYUuBk0vN12Bb9rYLq-9" target="SqzYUuBk0vN12Bb9rYLq-7">
          <mxGeometry relative="1" as="geometry">
            <mxPoint x="560" y="30" as="sourcePoint" />
            <mxPoint x="720" y="30" as="targetPoint" />
          </mxGeometry>
        </mxCell>
        <mxCell id="SqzYUuBk0vN12Bb9rYLq-15" value="" style="endArrow=none;html=1;rounded=0;entryX=0.5;entryY=0;entryDx=0;entryDy=0;" edge="1" parent="1" target="SqzYUuBk0vN12Bb9rYLq-8">
          <mxGeometry relative="1" as="geometry">
            <mxPoint x="1000" y="150" as="sourcePoint" />
            <mxPoint x="720" y="30" as="targetPoint" />
          </mxGeometry>
        </mxCell>
        <mxCell id="SqzYUuBk0vN12Bb9rYLq-16" value="" style="endArrow=none;html=1;rounded=0;entryX=0;entryY=0.5;entryDx=0;entryDy=0;" edge="1" parent="1" source="SqzYUuBk0vN12Bb9rYLq-2" target="SqzYUuBk0vN12Bb9rYLq-3">
          <mxGeometry relative="1" as="geometry">
            <mxPoint x="560" y="30" as="sourcePoint" />
            <mxPoint x="720" y="30" as="targetPoint" />
          </mxGeometry>
        </mxCell>
      </root>
    </mxGraphModel>
  </diagram>
</mxfile>
